<?xml version="1.0" encoding="UTF-8"?>
<svg version="1.1" xmlns="http://www.w3.org/2000/svg" width="500" height="500">
<path d="M0 0 C4.929375 -0.0825 9.85875 -0.165 14.9375 -0.25 C16.47398193 -0.28641602 18.01046387 -0.32283203 19.59350586 -0.36035156 C26.94800043 -0.41978182 33.7629308 -0.43979548 40 4 C44.99152275 9.35346138 46.36855747 14.38901647 46.28515625 21.62109375 C45.59865969 27.34816776 42.48173457 32.41461234 38 36 C37.34 36 36.68 36 36 36 C36.44653931 36.80219971 36.44653931 36.80219971 36.90209961 37.62060547 C38.24767574 40.03849094 39.59259562 42.45674082 40.9375 44.875 C41.40607422 45.71675781 41.87464844 46.55851562 42.35742188 47.42578125 C42.80537109 48.23144531 43.25332031 49.03710938 43.71484375 49.8671875 C44.12855225 50.61081543 44.54226074 51.35444336 44.96850586 52.12060547 C45.67082934 53.40024717 46.3471997 54.6943994 47 56 C41.72 56 36.44 56 31 56 C30.443125 54.85660156 29.88625 53.71320313 29.3125 52.53515625 C28.54320581 51.04347605 27.77228652 49.55263318 27 48.0625 C26.63777344 47.30775391 26.27554687 46.55300781 25.90234375 45.77539062 C25.52207031 45.05673828 25.14179688 44.33808594 24.75 43.59765625 C24.41484375 42.93258057 24.0796875 42.26750488 23.734375 41.58227539 C21.39558424 39.14291128 21.39558424 39.14291128 14 39 C14 44.61 14 50.22 14 56 C9.38 56 4.76 56 0 56 C0 37.52 0 19.04 0 0 Z M14 11 C14 16.28 14 21.56 14 27 C17.34125 27.12375 17.34125 27.12375 20.75 27.25 C22.62945312 27.31960938 22.62945312 27.31960938 24.546875 27.390625 C28.02786037 27.28418451 28.02786037 27.28418451 30.42578125 25.23828125 C32.99132869 21.59049296 32.48760928 19.38848352 32 15 C30.18836733 12.32568511 29.12238923 12.04079641 26 11 C21.99616868 10.86600297 18.0072645 10.95691113 14 11 Z " fill="#0F0F0F" transform="translate(343,238)"/>
<path d="M0 0 C4.29 0 8.58 0 13 0 C13 6.93 13 13.86 13 21 C19.93 21 26.86 21 34 21 C34 14.07 34 7.14 34 0 C38.62 0 43.24 0 48 0 C48 18.48 48 36.96 48 56 C43.38 56 38.76 56 34 56 C34 48.74 34 41.48 34 34 C27.07 34 20.14 34 13 34 C13 41.26 13 48.52 13 56 C8.71 56 4.42 56 0 56 C0 37.52 0 19.04 0 0 Z " fill="#0D0D0D" transform="translate(186,200)"/>
<path d="M0 0 C40.92 0 81.84 0 124 0 C124 4.62 124 9.24 124 14 C83.08 14 42.16 14 0 14 C0 9.38 0 4.76 0 0 Z " fill="#070707" transform="translate(120,281)"/>
<path d="M0 0 C40.92 0 81.84 0 124 0 C124 4.62 124 9.24 124 14 C83.08 14 42.16 14 0 14 C0 9.38 0 4.76 0 0 Z " fill="#0D0D0D" transform="translate(260,203)"/>
<path d="M0 0 C4.29 0 8.58 0 13 0 C13.01981934 0.92224365 13.03963867 1.8444873 13.06005859 2.79467773 C13.13871682 6.25585685 13.22542535 9.71664848 13.31738281 13.17749023 C13.3553815 14.66797273 13.39028196 16.15853789 13.421875 17.64916992 C13.59883462 29.4733807 13.59883462 29.4733807 16 41 C19.44798091 43.72631049 21.30895397 44.02342529 25.6875 43.875 C28.89722085 43.02714921 30.10449905 42.63264021 32 40 C33.63657754 36.72684491 33.2430807 33.09377769 33.31640625 29.4921875 C33.33718735 28.65156769 33.35796844 27.81094788 33.37937927 26.94485474 C33.44485439 24.25498765 33.5037502 21.56502157 33.5625 18.875 C33.60568716 17.05337511 33.64930152 15.23176029 33.69335938 13.41015625 C33.80053368 8.94020606 33.90180685 4.47015614 34 0 C38.62 0 43.24 0 48 0 C48.04982621 4.81972791 48.08591929 9.6393024 48.10986328 14.45922852 C48.11985617 16.09532283 48.13345507 17.73139959 48.15087891 19.36743164 C48.40569741 43.92743884 48.40569741 43.92743884 41 52 C34.48603645 57.18099031 27.61270512 57.72893555 19.49609375 57.41015625 C12.66970051 56.60929447 8.90837937 54.4613342 4.625 49.125 C0.22240629 43.04991259 -0.28634522 37.1328363 -0.1953125 29.8828125 C-0.1924826 29.02565643 -0.18965271 28.16850037 -0.18673706 27.28536987 C-0.17559999 24.56510068 -0.1505076 21.84516859 -0.125 19.125 C-0.11496182 17.27344228 -0.10583744 15.42187936 -0.09765625 13.5703125 C-0.07568188 9.0467464 -0.041197 4.52343023 0 0 Z " fill="#0D0D0D" transform="translate(267,238)"/>
<path d="M0 0 C4.62 0 9.24 0 14 0 C14.07453648 5.55010083 14.12878399 11.09990586 14.16479492 16.65039062 C14.17981793 18.53585897 14.20024231 20.42129275 14.22631836 22.30664062 C14.26298863 25.0274309 14.27979146 27.74775641 14.29296875 30.46875 C14.30845261 31.30241089 14.32393646 32.13607178 14.33988953 32.99499512 C14.3418263 39.83481035 13.13182798 45.33521502 8.75 50.8125 C2.87662553 55.48450242 -2.16270316 56.44707647 -9.4375 56.1875 C-10.16904297 56.17396484 -10.90058594 56.16042969 -11.65429688 56.14648438 C-13.43652422 56.11153874 -15.21836573 56.05774805 -17 56 C-17 52.04 -17 48.08 -17 44 C-14.265625 43.8046875 -11.53125 43.609375 -8.796875 43.4140625 C-6.07360292 43.01089652 -4.30876887 42.47210492 -2 41 C-0.33650681 37.67301363 -0.75621943 33.93570615 -0.68359375 30.2734375 C-0.66281265 29.41062164 -0.64203156 28.54780579 -0.62062073 27.65884399 C-0.55513966 24.89764507 -0.49624702 22.13634962 -0.4375 19.375 C-0.3943134 17.50519828 -0.35069907 15.63540638 -0.30664062 13.765625 C-0.19945976 9.17718272 -0.09818825 4.58864317 0 0 Z " fill="#101010" transform="translate(143,200)"/>
</svg>
