<?xml version="1.0" encoding="UTF-8"?>
<svg version="1.1" xmlns="http://www.w3.org/2000/svg" width="500" height="500">
<path d="M0 0 C165 0 330 0 500 0 C500 165 500 330 500 500 C335 500 170 500 0 500 C0 335 0 170 0 0 Z " fill="#E3E3E3" transform="translate(0,0)"/>
<path d="M0 0 C6.8990625 -0.12375 6.8990625 -0.12375 13.9375 -0.25 C16.08560181 -0.30462402 16.08560181 -0.30462402 18.27709961 -0.36035156 C26.22170884 -0.42906409 33.55867535 -0.19267516 39.60913086 5.51904297 C44.40416061 11.05558952 44.39901433 15.28357763 44.34765625 22.4296875 C43.88508138 27.18017553 42.55160293 30.73778694 39 34 C36.32421875 35.203125 36.32421875 35.203125 34 36 C34.49983398 36.80219971 34.49983398 36.80219971 35.00976562 37.62060547 C36.51112495 40.03590415 38.00563105 42.45537067 39.5 44.875 C40.02464844 45.71675781 40.54929687 46.55851562 41.08984375 47.42578125 C41.58613281 48.23144531 42.08242188 49.03710938 42.59375 49.8671875 C43.05458984 50.61081543 43.51542969 51.35444336 43.99023438 52.12060547 C45 54 45 54 45 56 C40.22731058 56.52957239 35.75393037 56.77463598 31 56 C27.95607964 53.48205117 26.60430989 50.55885645 25 47 C24.21940148 45.6808873 23.42893662 44.36752041 22.625 43.0625 C21 40 21 40 21 38 C18.03 38 15.06 38 12 38 C12 43.94 12 49.88 12 56 C8.04 56 4.08 56 0 56 C0 37.52 0 19.04 0 0 Z " fill="#020202" transform="translate(344,238)"/>
<path d="M0 0 C40.92 0 81.84 0 124 0 C124 4.62 124 9.24 124 14 C83.08 14 42.16 14 0 14 C0 9.38 0 4.76 0 0 Z " fill="#070707" transform="translate(120,281)"/>
<path d="M0 0 C4.29 0 8.58 0 13 0 C13 7.26 13 14.52 13 22 C20.26 22 27.52 22 35 22 C35 14.74 35 7.48 35 0 C39.29 0 43.58 0 48 0 C48 18.48 48 36.96 48 56 C43.71 56 39.42 56 35 56 C35 48.41 35 40.82 35 33 C27.74 33 20.48 33 13 33 C13 40.59 13 48.18 13 56 C8.71 56 4.42 56 0 56 C0 37.52 0 19.04 0 0 Z " fill="#050505" transform="translate(186,200)"/>
<path d="M0 0 C40.92 0 81.84 0 124 0 C124 4.29 124 8.58 124 13 C83.08 13 42.16 13 0 13 C0 8.71 0 4.42 0 0 Z " fill="#000000" transform="translate(260,203)"/>
<path d="M0 0 C4.29 0 8.58 0 13 0 C13.01458252 1.05912598 13.02916504 2.11825195 13.04418945 3.20947266 C13.10237327 7.15707342 13.17960407 11.10411571 13.26245117 15.05126953 C13.29560636 16.75625512 13.32366737 18.46134798 13.34643555 20.16650391 C13.38015568 22.62448634 13.43247794 25.08149406 13.48828125 27.5390625 C13.49467117 28.29555084 13.5010611 29.05203918 13.50764465 29.83145142 C13.66406154 35.52333914 14.83828521 39.83828521 19 44 C23.23955952 44.34750488 25.94729669 44.43481224 29.875 42.8125 C33.4559344 39.7581736 33.9378487 36.75480993 34.31884766 32.12768555 C34.36013214 30.63092946 34.39135662 29.13387192 34.4140625 27.63671875 C34.43342865 26.84473587 34.4527948 26.05275299 34.4727478 25.23677063 C34.53227232 22.72045481 34.57881958 20.20409256 34.625 17.6875 C34.66320481 15.9758921 34.70225799 14.26430291 34.7421875 12.55273438 C34.8379513 8.36864251 34.9220818 4.18446069 35 0 C38.96 0 42.92 0 47 0 C47.09964824 5.37104009 47.17183292 10.74152986 47.21972656 16.11328125 C47.23971364 17.93661892 47.26691286 19.75989356 47.30175781 21.58300781 C47.70869881 43.43813327 47.70869881 43.43813327 41.65795898 50.58520508 C35.15766889 56.56314079 28.67508152 57.57821325 20.15625 57.34375 C12.93660124 56.55745162 8.72209551 53.3064861 4.2265625 47.78125 C-0.10593129 41.48947558 -0.14856448 35.00066982 -0.09765625 27.5390625 C-0.0962413 26.74849457 -0.09482635 25.95792664 -0.09336853 25.1434021 C-0.08780504 22.63722834 -0.07525944 20.13114642 -0.0625 17.625 C-0.05748028 15.91797005 -0.0529182 14.21093868 -0.04882812 12.50390625 C-0.03784759 8.33590252 -0.02060839 4.16796679 0 0 Z " fill="#040404" transform="translate(267,238)"/>
<path d="M0 0 C3.96 0 7.92 0 12 0 C12.12414511 5.97730032 12.21459663 11.95384052 12.2746582 17.93212891 C12.29971104 19.96318647 12.3337632 21.9941547 12.37719727 24.02490234 C12.43825687 26.95432648 12.46630227 29.88255279 12.48828125 32.8125 C12.51408768 33.71178223 12.5398941 34.61106445 12.56648254 35.53759766 C12.56929221 41.93793168 11.01418651 46.00538515 7 51 C2.57681951 55.28049725 -2.84020844 56.23479269 -8.859375 56.17578125 C-9.85710937 56.15064453 -9.85710937 56.15064453 -10.875 56.125 C-11.56335938 56.11597656 -12.25171875 56.10695313 -12.9609375 56.09765625 C-14.64077838 56.07432513 -16.32043746 56.03846326 -18 56 C-18 52.04 -18 48.08 -18 44 C-14.97265625 43.77213542 -11.9453125 43.54427083 -8.91796875 43.31640625 C-5.94010095 43.09787539 -5.94010095 43.09787539 -3 42 C-0.55053536 37.72759415 -0.65664528 33.21410755 -0.5859375 28.41796875 C-0.56657135 27.60378983 -0.5472052 26.7896109 -0.5272522 25.95075989 C-0.46771248 23.36311148 -0.42117417 20.77541797 -0.375 18.1875 C-0.3367966 16.42771551 -0.2977435 14.66794926 -0.2578125 12.90820312 C-0.16203218 8.60561766 -0.07790715 4.3029447 0 0 Z " fill="#020202" transform="translate(144,200)"/>
<path d="M0 0 C2.371875 -0.103125 4.74375 -0.20625 7.1875 -0.3125 C7.92508545 -0.35802002 8.6626709 -0.40354004 9.42260742 -0.45043945 C13.31720881 -0.53196048 14.87233748 -0.10081286 17.953125 2.33203125 C20 5 20 5 20.5625 8 C19.87206143 11.68233904 18.63186072 13.36813928 16 16 C10.83608171 17.7213061 5.40708764 17.05353552 0 17 C0 11.39 0 5.78 0 0 Z " fill="#DBDBDB" transform="translate(356,249)"/>
</svg>
